<svg preserveAspectRatio="none" overflow="visible" style="display: block;" width="14.519" height="18.3706" viewBox="0 0 14.519 18.3706" fill="none" xmlns="http://www.w3.org/2000/svg">
<path id="Vector" d="M11.7525 0H14.519V11.8853C14.519 13.15 14.2185 14.2706 13.6176 15.247C13.0168 16.2176 12.172 16.9824 11.0832 17.5411C9.99454 18.0941 8.71844 18.3706 7.25496 18.3706C5.79746 18.3706 4.52427 18.0941 3.43556 17.5411C2.34685 16.9824 1.50216 16.2176 0.901165 15.247C0.300335 14.2706 0 13.15 0 11.8853V0H2.75738V11.6647C2.75738 12.4823 2.93878 13.2088 3.30174 13.8441C3.67052 14.4794 4.19109 14.9794 4.86344 15.3442C5.53564 15.7029 6.33292 15.8824 7.25496 15.8824C8.18298 15.8824 8.98317 15.7029 9.65553 15.3442C10.3337 14.9794 10.8512 14.4794 11.2082 13.8441C11.5711 13.2088 11.7525 12.4823 11.7525 11.6647V0Z" fill="#00234C"/>
</svg>
